<?xml version="1.0" encoding="UTF-8"?>
              <!-- Generator: Adobe Illustrator 16.0.4, SVG Export Plug-In . SVG Version: 6.00 Build 0) -->
              <svg
                role="img"
                aria-label="Gray Area"
                xmlns="http://www.w3.org/2000/svg"
                xmlns:xlink="http://www.w3.org/1999/xlink"
                id="Layer_1"
                x="0px"
                y="0px"
                width="120px"
                height="120px"
                viewBox="0 0 1920 1920"
                xml:space="preserve"
              >
                <g>
                  <g>
                    <path
                      fill="#FFFFFF"
                      d="M790.643,1431.881c-26.743,0-49.029-10.025-65.746-31.199c-17.829-21.176-26.743-52.375-26.743-94.711 c0-37.879,8.914-67.969,26.743-89.144c17.828-21.175,40.113-32.311,65.746-32.311c21.175,0,39.003,6.679,53.485,21.175 c14.482,14.482,23.396,33.422,27.854,56.832l-27.854,5.568c-2.235-16.719-8.914-30.09-16.718-41.226s-20.05-15.593-35.657-15.593 c-17.828,0-33.422,7.803-44.571,23.396c-11.149,15.593-17.828,39.003-17.828,70.189c0,32.311,5.567,56.832,16.718,74.646 c11.136,16.718,26.742,25.633,44.571,25.633c16.718,0,30.089-5.568,40.114-17.829c10.024-12.261,14.482-28.965,14.482-49.028 h-56.832v-27.854h82.45v22.285c0,30.09-6.68,54.597-22.286,72.426C832.979,1422.967,815.149,1431.881,790.643,1431.881z"
                    ></path>
                    <path
                      fill="#FFFFFF"
                      d="M939.949,1427.424v-240.672h74.647c24.507,0,44.571,6.679,59.054,18.939s21.175,30.089,21.175,53.485 c0,18.939-5.568,34.547-15.593,45.683c-11.137,11.136-24.508,18.939-43.461,22.286l52.375,99.168h-31.2l-51.25-95.822h-37.879 v95.822L939.949,1427.424L939.949,1427.424z M967.804,1303.734h45.682c15.594,0,28.965-3.346,37.879-10.024 c10.025-6.679,14.482-18.939,14.482-34.547c0-30.089-17.828-44.571-53.485-44.571h-45.683v89.143H967.804z"
                    ></path>
                    <path
                      fill="#FFFFFF"
                      d="M1302.062,1427.424l-15.593-47.918h-96.933l-14.482,47.918h-28.965l79.104-240.672h28.965l79.104,240.672 H1302.062L1302.062,1427.424z M1277.555,1359.456l-40.115-130.368h-1.11l-41.226,130.368H1277.555z"
                    ></path>
                    <path
                      fill="#FFFFFF"
                      d="M1427.973,1427.424v-101.39l-75.771-139.282h32.311l60.165,110.304h1.11l60.165-110.304h32.311 l-81.339,139.282v101.39H1427.973z"
                    ></path>
                    <path
                      fill="#FFFFFF"
                      d="M846.35,1781.746l-15.593-41.225h-96.933l-14.482,41.225h-28.965l79.104-233.993h28.964l79.104,233.993 H846.35z M822.953,1713.778l-40.114-130.368h-1.11l-41.226,130.368H822.953z"
                    ></path>
                    <path
                      fill="#FFFFFF"
                      d="M939.949,1781.746v-233.993h74.647c24.507,0,44.571,1.111,59.054,13.372 c14.482,12.26,21.175,27.854,21.175,50.139c0,18.939-5.568,33.422-15.593,44.572c-11.137,11.136-24.508,21.175-43.461,24.507 l52.375,101.39h-31.2l-51.25-95.821h-37.879v95.821L939.949,1781.746L939.949,1781.746z M967.804,1664.75h45.682 c15.594,0,28.965-8.914,37.879-15.594c10.025-6.679,14.482-15.593,14.482-31.199c0-30.09-17.828-42.336-53.485-42.336H967.79 v89.129H967.804z"
                    ></path>
                    <path
                      fill="#FFFFFF"
                      d="M1167.25,1781.746v-233.993h137.047v27.854h-110.304v75.771h103.625v21.174h-103.625v89.144h110.304 v21.161L1167.25,1781.746L1167.25,1781.746z"
                    ></path>
                    <path
                      fill="#FFFFFF"
                      d="M1508.201,1781.746l-15.594-41.225h-96.932l-14.482,41.225h-28.965l79.104-233.993h28.965l79.104,233.993 H1508.201z M1483.693,1713.778l-40.114-130.368h-1.11l-41.226,130.368H1483.693z"
                    ></path>
                  </g>
                  <g>
                    <g>
                      <polygon
                        fill="#FFFFFF"
                        points="595.652,137.143 595.652,951.648 1065.847,137.143 "
                      ></polygon>
                    </g>
                    <g>
                      <polygon
                        fill="#FFFFFF"
                        points="631.31,972.81 1336.607,565.001 1101.504,157.193 "
                      ></polygon>
                    </g>
                    <g>
                      <polygon
                        fill="#FFFFFF"
                        points="554.428,172.8 317.088,582.83 554.428,992.873 "
                      ></polygon>
                    </g>
                    <g>
                      <polygon
                        fill="#FFFFFF"
                        points="1602.912,1028.53 1355.548,600.658 615.703,1028.53 1088.133,1028.53 1088.133,1028.53 "
                      ></polygon>
                    </g>
                  </g>
                </g>
              </svg>